# xmcd
#
# Track frame offsets:
#	150
#	24325
#	41477
#	62222
#	79587
#	95900
#	107670
#	134217
#	157875
#	170505
#
# Disc length: 2538 seconds
# Revision: 4
# Processed by: cddbd v1.5.2PL0 Copyright (c) Steve Scherf et al.
# Submitted via: dBpowerAMP V12.0
#
DISCID=8109e80a
DTITLE=Gary Floyd - World of Trouble
DYEAR=1994
DGENRE=Blues
TTITLE0=Maybe
TTITLE1=A Better Man
TTITLE2=World of Trouble
TTITLE3=Franklyn and Susie
TTITLE4=Absence
TTITLE5=Dallas
TTITLE6=Tough
TTITLE7=Wayfaring Stranger
TTITLE8=Lazarus
TTITLE9=From the Darkness (To the Light)
EXTD=
EXTT0=
EXTT1=
EXTT2=
EXTT3=
EXTT4=
EXTT5=
EXTT6=
EXTT7=
EXTT8=
EXTT9=
PLAYORDER=
